<?xml version="1.0" encoding="UTF-8"?>
<svg version="1.1" xmlns="http://www.w3.org/2000/svg" width="512" height="512">
<path d="M0 0 C4.72317255 4.2733466 7.99744592 8.56672255 10.625 14.375 C12.36274352 12.11593342 13.93852322 9.86687617 15.4375 7.4375 C18.46688876 3.19635574 22.3221045 -1.01124356 27.6640625 -2.00390625 C37.91527766 -2.73171156 46.9012595 2.17192323 54.9921875 8.11328125 C64.90559854 17.34376842 70.03948621 31.4089824 70.74926758 44.70239258 C71.33084313 63.40463809 68.45241918 80.38857525 63.625 98.375 C64.37052124 97.88471313 64.37052124 97.88471313 65.13110352 97.38452148 C87.05434865 83.04553412 111.95072696 69.046884 139.171875 74.0234375 C152.26413914 77.68801861 161.85678923 84.64114432 168.8125 96.37890625 C170.65083872 100.89520955 170.55917284 106.09770311 168.71484375 110.59375 C165.98388331 115.1599861 162.50491425 118.76577744 158.625 122.375 C159.49382812 122.54515625 160.36265625 122.7153125 161.2578125 122.890625 C168.88326762 124.49418827 174.67515575 125.71893153 179.74609375 132.00390625 C181.94688562 135.95252036 182.24036074 139.09540777 182.125 143.5 C182.11146484 144.24846191 182.09792969 144.99692383 182.08398438 145.76806641 C181.61027328 158.62161099 176.45735561 168.53059438 167.41015625 177.59375 C147.74422538 194.60919767 120.34000151 196.32311386 95.625 198.375 C96.3778125 198.91125 97.130625 199.4475 97.90625 200 C114.913769 212.42418281 130.32258023 227.70966063 138.625 247.375 C138.94339844 248.09171875 139.26179688 248.8084375 139.58984375 249.546875 C143.88704179 261.03247346 143.17224899 275.50552765 138.1796875 286.5625 C134.66789722 292.91548744 130.90436657 299.19119003 123.625 301.375 C115.49584377 302.59908144 108.34622628 299.85581752 101.625 295.375 C101.78097656 295.90867187 101.93695313 296.44234375 102.09765625 296.9921875 C104.00429916 304.29046303 104.37404331 310.87691338 100.9375 317.75 C96.1492831 323.18527323 90.69563469 325.85063002 83.47192383 326.59765625 C66.06035764 327.46851609 54.6732318 323.79740505 41.2890625 312.3828125 C26.7456449 298.85998561 17.61371247 279.01120315 11.625 260.375 C10.02600181 262.77349728 9.03193006 264.63358451 7.99609375 267.26171875 C2.01088455 282.13865741 -4.54162138 296.34994974 -15.375 308.375 C-15.99890625 309.08011719 -16.6228125 309.78523438 -17.265625 310.51171875 C-26.74633931 320.62833463 -37.47946543 326.28185291 -51.29443359 326.77514648 C-60.08180255 326.90550013 -68.88875388 326.75138483 -76.07421875 321.01953125 C-79.94573813 316.88177558 -81.44982391 312.18286567 -81.30078125 306.58984375 C-80.9854754 302.66661193 -80.62272288 299.11816865 -79.375 295.375 C-80.06207031 295.72433594 -80.74914062 296.07367188 -81.45703125 296.43359375 C-82.35808594 296.88863281 -83.25914062 297.34367187 -84.1875 297.8125 C-85.08082031 298.26496094 -85.97414063 298.71742188 -86.89453125 299.18359375 C-92.30380487 301.7817488 -97.72514156 302.63194941 -103.49609375 300.64453125 C-111.73538672 296.19563426 -116.05548525 287.38328752 -118.78833008 278.75732422 C-119.75051702 274.8501165 -119.86482661 271.07146014 -119.8125 267.0625 C-119.80420166 266.23218262 -119.79590332 265.40186523 -119.78735352 264.54638672 C-119.59712894 257.58321966 -118.33986215 251.71699802 -115.375 245.375 C-114.87742188 244.30894531 -114.37984375 243.24289062 -113.8671875 242.14453125 C-108.28783389 231.07665073 -100.59479472 222.45410362 -92 213.6875 C-91.4121875 213.08180176 -90.824375 212.47610352 -90.21875 211.85205078 C-85.06602072 206.70908046 -79.33537634 202.53664665 -73.375 198.375 C-74.16447021 198.30506836 -74.95394043 198.23513672 -75.76733398 198.16308594 C-132.44964197 193.03002987 -132.44964197 193.03002987 -150.8125 171.5 C-157.12222473 163.12151306 -159.55411346 154.35079552 -159.6875 144 C-159.73100586 142.88625 -159.73100586 142.88625 -159.77539062 141.75 C-159.83594125 136.47743785 -158.86644776 133.54740388 -155.375 129.375 C-149.94332873 124.39092748 -143.49275167 123.25163486 -136.375 122.375 C-136.91769531 121.87871094 -137.46039063 121.38242187 -138.01953125 120.87109375 C-143.66249864 115.51281661 -147.32576368 110.95635026 -147.875 102.9375 C-147.68901354 97.72987925 -145.4677066 94.42394736 -142.375 90.375 C-141.67375 89.364375 -140.9725 88.35375 -140.25 87.3125 C-132.58504096 78.57635103 -120.89065202 74.12734081 -109.58984375 72.99609375 C-84.01500403 72.21499027 -62.00423044 84.49715407 -41.375 98.375 C-41.551521 97.62927734 -41.72804199 96.88355469 -41.90991211 96.11523438 C-42.71509039 92.70282476 -43.51384241 89.28894137 -44.3125 85.875 C-44.59029297 84.70195312 -44.86808594 83.52890625 -45.15429688 82.3203125 C-49.96443716 61.68886742 -51.64945539 38.36866615 -41.140625 19.1875 C-33.11586827 6.40470167 -15.83116783 -7.62241414 0 0 Z " fill="#FFA4B8" transform="translate(330.375,185.625)"/>
<path d="M0 0 C14.18137569 6.66506546 21.15947781 18.50905559 26.4465332 32.66821289 C28.58191505 38.7183423 29.86676493 44.80703733 30.953125 51.12109375 C31.20268407 53.83091193 31.20268407 53.83091193 32.49609375 54.9375 C33.27919922 53.64779297 33.27919922 53.64779297 34.078125 52.33203125 C44.20683759 35.94006306 55.72877601 20.96769532 74.99609375 15.1875 C84.13668387 14.27344099 91.77629228 15.36306284 99.93359375 19.8125 C102.70835476 22.11352132 104.13103668 23.60069383 105.49609375 26.9375 C105.91456814 32.21027731 105.48225994 35.97208454 103.49609375 40.9375 C104.31980469 40.70160156 104.31980469 40.70160156 105.16015625 40.4609375 C111.0159685 39.14876552 116.57639262 38.92529395 121.93359375 41.75 C127.25676968 47.25832987 128.73202312 55.04352244 128.99609375 62.4375 C128.5416708 75.20678477 122.62962458 84.42670991 113.49609375 92.9375 C112.53703125 93.90429688 112.53703125 93.90429688 111.55859375 94.890625 C104.09201766 102.1049519 95.52422267 106.9207091 86.49609375 111.9375 C87.32463867 112.14729492 87.32463867 112.14729492 88.16992188 112.36132812 C105.65247805 116.86594699 127.2210759 122.77217915 137.53515625 139.12109375 C141.87267159 147.32005568 142.52900091 155.7324744 141.49609375 164.9375 C139.8938125 169.05133255 138.4203139 171.80144399 134.49609375 173.9375 C131.48046875 174.66796875 131.48046875 174.66796875 128.24609375 175.125 C127.1684375 175.28355469 126.09078125 175.44210938 124.98046875 175.60546875 C124.160625 175.71503906 123.34078125 175.82460937 122.49609375 175.9375 C122.86863281 176.48277344 123.24117187 177.02804688 123.625 177.58984375 C126.67339787 182.44900658 128.366469 186.05666722 127.24609375 191.80859375 C125.03402037 198.0876562 120.54953515 201.17931018 114.87109375 204.3125 C105.47951643 208.65959148 96.34063114 208.82544371 86.49609375 205.9375 C85.73167969 205.71449219 84.96726563 205.49148437 84.1796875 205.26171875 C70.66296827 200.56315572 59.60580509 190.71591947 49.49609375 180.9375 C49.51704102 181.79279297 49.53798828 182.64808594 49.55957031 183.52929688 C50.45204813 225.48705133 50.45204813 225.48705133 36.83984375 240.80078125 C30.80213701 246.53945062 23.48672891 249.12217658 15.24609375 249.5 C11.59818409 249.35483286 8.91419774 249.1193317 5.93359375 246.9375 C2.99695962 243.32318107 1.84926159 240.37288348 0.49609375 235.9375 C0.02558594 236.34742188 -0.44492188 236.75734375 -0.9296875 237.1796875 C-1.55230469 237.71851563 -2.17492187 238.25734375 -2.81640625 238.8125 C-3.43128906 239.34617188 -4.04617187 239.87984375 -4.6796875 240.4296875 C-8.65958136 243.71927857 -11.01563638 244.44711946 -16.03515625 244.30859375 C-23.22321068 243.22811088 -28.54036686 238.60119113 -33 233.1171875 C-40.62076964 222.07202007 -40.68342137 209.5250048 -38.37890625 196.6875 C-36.13288992 186.30234831 -32.38808949 176.37153251 -27.50390625 166.9375 C-28.34050781 167.32421875 -29.17710938 167.7109375 -30.0390625 168.109375 C-47.28606513 175.82564196 -66.69386661 181.76702681 -85.2265625 174.93359375 C-92.65990985 171.53645311 -99.0092521 166.29794213 -102.84375 158.9609375 C-104.24177631 154.67586279 -104.18824419 150.3583231 -103.50390625 145.9375 C-101.45177442 142.41955972 -98.94033519 140.11390499 -95.50390625 137.9375 C-94.84390625 137.9375 -94.18390625 137.9375 -93.50390625 137.9375 C-93.50390625 137.2775 -93.50390625 136.6175 -93.50390625 135.9375 C-94.37015625 135.855 -95.23640625 135.7725 -96.12890625 135.6875 C-101.30007347 134.53835173 -104.57245115 132.33468266 -107.50390625 127.9375 C-108.65341105 119.03552094 -107.16169555 112.08304298 -101.99609375 104.81640625 C-94.02276141 95.00735321 -83.96420594 90.36239481 -71.50390625 88.9375 C-60.59132535 88.31811905 -49.30203177 88.03194844 -38.50390625 89.9375 C-39.28765625 89.07125 -40.07140625 88.205 -40.87890625 87.3125 C-53.45047572 72.53643731 -64.66977325 55.50322945 -63.328125 35.2890625 C-62.09621755 27.39987745 -58.37445498 20.09546803 -52.25390625 14.875 C-47.64143103 11.62530155 -44.08374333 11.10627229 -38.50390625 11.9375 C-35.59526384 13.30796414 -33.0565784 14.98995722 -30.50390625 16.9375 C-30.4059375 16.20144531 -30.30796875 15.46539063 -30.20703125 14.70703125 C-28.68058406 4.74564741 -28.68058406 4.74564741 -24.50390625 0.9375 C-18.12187722 -3.32227536 -7.04159967 -2.13524539 0 0 Z " fill="#FFA4B8" transform="translate(107.50390625,1.0625)"/>
<path d="M0 0 C6.42534189 3.01982863 12.28762229 7.13228496 16.49609375 12.9375 C16.49609375 13.9275 16.49609375 14.9175 16.49609375 15.9375 C14.80338542 16.55598958 13.11067708 17.17447917 11.41796875 17.79296875 C8.64559055 19.44399885 7.24279325 21.22710422 5.49609375 23.9375 C4.80506893 27.27652191 4.80506893 27.27652191 4.74609375 30.75 C4.66101563 32.49216797 4.66101563 32.49216797 4.57421875 34.26953125 C4.5484375 35.14996094 4.52265625 36.03039063 4.49609375 36.9375 C3.95339844 36.51597656 3.41070312 36.09445313 2.8515625 35.66015625 C2.13613281 35.11230469 1.42070313 34.56445312 0.68359375 34 C-0.02410156 33.45472656 -0.73179688 32.90945312 -1.4609375 32.34765625 C-5.37988861 29.64260587 -8.85454096 29.54348599 -13.50390625 29.9375 C-19.76870068 33.00597074 -23.74767143 38.42503037 -26.81640625 44.5625 C-30.93643607 58.79533027 -27.35118763 71.33544571 -20.37890625 84 C-16.20208442 91.34788334 -11.17649849 97.6846217 -5.50390625 103.9375 C-4.77042969 103.17824219 -4.03695312 102.41898437 -3.28125 101.63671875 C3.35772529 95.18449382 10.33025173 90.98584787 19.68359375 90.5625 C28.45496958 90.76509971 36.36505528 93.61306668 42.703125 99.78125 C49.20267924 107.59770738 51.45429722 115.26542169 51.01953125 125.37890625 C50.24587045 130.63864494 48.46169628 134.56713837 45.49609375 138.9375 C45.12355469 139.52015625 44.75101563 140.1028125 44.3671875 140.703125 C40.1238766 146.55800694 32.43320338 150.38018968 25.49609375 151.9375 C16.23197959 152.988403 8.80149155 150.41855177 1.18359375 145.1875 C-4.08483047 140.98340391 -7.43174153 135.30986495 -9.50390625 128.9375 C-9.76953125 125.4140625 -9.76953125 125.4140625 -9.75390625 121.5625 C-9.76164062 119.66371094 -9.76164062 119.66371094 -9.76953125 117.7265625 C-9.49256679 113.77574597 -8.72306923 110.68207202 -7.50390625 106.9375 C-11.43249544 106.88737569 -15.36095609 106.85144498 -19.28979492 106.82763672 C-21.26943521 106.81285083 -23.24898688 106.78741408 -25.22851562 106.76171875 C-38.9060707 106.69246531 -54.49698316 108.0534653 -64.97265625 118.015625 C-70.13055056 124.48930868 -73.953643 132.53088221 -73.50390625 140.9375 C-72.49416359 145.48134197 -70.35658217 147.42488527 -66.50390625 149.9375 C-63.86612337 151.08265992 -61.23242289 152.0125791 -58.50390625 152.9375 C-60.61975846 155.13171711 -62.69982599 157.08677218 -65.12890625 158.9375 C-67.53915815 160.96718581 -68.3926627 162.05244047 -69.50390625 164.9375 C-69.56988954 167.2079371 -69.56988954 167.2079371 -69.19140625 169.5 C-69.09214844 170.26441406 -68.99289063 171.02882812 -68.890625 171.81640625 C-68.52300755 174.11509623 -68.52300755 174.11509623 -67.50390625 176.9375 C-77.45106316 177.73115614 -85.86365719 176.34279256 -93.89453125 170.0703125 C-95.93864757 168.12461659 -97.73985658 166.13832158 -99.50390625 163.9375 C-99.95765625 163.38191406 -100.41140625 162.82632813 -100.87890625 162.25390625 C-104.31616875 157.27703659 -104.39957805 151.72353983 -103.50390625 145.9375 C-101.45177442 142.41955972 -98.94033519 140.11390499 -95.50390625 137.9375 C-94.84390625 137.9375 -94.18390625 137.9375 -93.50390625 137.9375 C-93.50390625 137.2775 -93.50390625 136.6175 -93.50390625 135.9375 C-94.37015625 135.855 -95.23640625 135.7725 -96.12890625 135.6875 C-101.30007347 134.53835173 -104.57245115 132.33468266 -107.50390625 127.9375 C-108.65341105 119.03552094 -107.16169555 112.08304298 -101.99609375 104.81640625 C-94.02276141 95.00735321 -83.96420594 90.36239481 -71.50390625 88.9375 C-60.59132535 88.31811905 -49.30203177 88.03194844 -38.50390625 89.9375 C-39.28765625 89.07125 -40.07140625 88.205 -40.87890625 87.3125 C-53.45047572 72.53643731 -64.66977325 55.50322945 -63.328125 35.2890625 C-62.09621755 27.39987745 -58.37445498 20.09546803 -52.25390625 14.875 C-47.64143103 11.62530155 -44.08374333 11.10627229 -38.50390625 11.9375 C-35.59526384 13.30796414 -33.0565784 14.98995722 -30.50390625 16.9375 C-30.4059375 16.20144531 -30.30796875 15.46539063 -30.20703125 14.70703125 C-28.68058406 4.74564741 -28.68058406 4.74564741 -24.50390625 0.9375 C-18.12187722 -3.32227536 -7.04159967 -2.13524539 0 0 Z " fill="#FFBECA" transform="translate(107.50390625,1.0625)"/>
<path d="M0 0 C1.89244978 1.89244978 1.21843905 5.04025393 1.25 7.5625 C1.20853878 32.20527378 -8.71850389 56.69557669 -26.1015625 74.1640625 C-27.06734929 75.10974182 -28.03346838 76.05508195 -29 77 C-29.75023438 77.77085937 -30.50046875 78.54171875 -31.2734375 79.3359375 C-40.18145452 87.97903208 -51.66696314 93.42659432 -64.12109375 93.27734375 C-71.5172582 92.56482316 -78.16438411 88.57473853 -83 83 C-87.87851098 75.99976975 -87.64697024 68.25152202 -87 60 C-86.505 58.515 -86.505 58.515 -86 57 C-86.58007812 56.97421875 -87.16015625 56.9484375 -87.7578125 56.921875 C-96.48476861 56.28823462 -100.82990129 52.50351273 -106.484375 46.09765625 C-111.2646258 39.48169058 -110.65621936 31.79156656 -110 24 C-109.17131414 20.85397104 -107.93324887 18.59888845 -106 16 C-105.54882812 15.34902344 -105.09765625 14.69804687 -104.6328125 14.02734375 C-94.23807543 0.60727276 -74.59046877 -6.09299645 -58.31640625 -8.52734375 C-38.5321036 -10.95489381 -18.13456028 -8.51343231 0 0 Z " fill="#FFBECA" transform="translate(110,324)"/>
<path d="M0 0 C10.33908474 7.61597369 16.64588137 17.36951469 19.6875 29.8125 C21.18934959 45.13136582 18.01081374 57.87810122 8.33984375 70.09765625 C0.16697322 78.8888054 -11.48184482 84.36338603 -23.39453125 85.16015625 C-38.24016759 85.64863928 -50.11673684 80.35415296 -60.89453125 70.3203125 C-69.56889191 60.760813 -73.73784753 48.6161891 -73.27734375 35.77734375 C-72.0506733 23.49336224 -67.15187647 11.98687074 -57.9453125 3.5234375 C-40.26956424 -10.31901596 -19.15490745 -11.80124245 0 0 Z " fill="#FFD8DF" transform="translate(368,318)"/>
<path d="M0 0 C3.99668673 3.52562236 7.80669535 7.69642377 9 13 C9.13631331 15.69092578 9.09148287 18.30125537 9 21 C9.845625 20.95359375 10.69125 20.9071875 11.5625 20.859375 C19.79645429 20.59738555 25.43403413 20.97611227 31.7109375 26.5078125 C36.40525948 31.43112579 38.80031029 36.86702816 39.12890625 43.66796875 C38.5237858 56.66888988 31.00777753 65.37162614 22 74 C8.27474432 85.76127995 -11.62094248 94.11142269 -29.73046875 94.1328125 C-30.78041016 94.13410156 -31.83035156 94.13539062 -32.91210938 94.13671875 C-33.99298828 94.13285156 -35.07386719 94.12898438 -36.1875 94.125 C-37.27998047 94.12886719 -38.37246094 94.13273437 -39.49804688 94.13671875 C-40.54412109 94.13542969 -41.59019531 94.13414063 -42.66796875 94.1328125 C-43.61953857 94.13168457 -44.5711084 94.13055664 -45.55151367 94.12939453 C-48 94 -48 94 -51 93 C-51.89859102 90.6481704 -52.5516694 88.49786636 -53.125 86.0625 C-53.38047607 84.99418945 -53.38047607 84.99418945 -53.64111328 83.90429688 C-58.7851658 60.79377352 -55.62117366 35.9021605 -42.91796875 15.68359375 C-32.4348911 1.01582522 -17.83665203 -10.41196436 0 0 Z " fill="#FFA4B8" transform="translate(355,18)"/>
<path d="M0 0 C13.60856917 9.07237944 20.84617628 24.22837097 25.25 39.5 C26.43018696 45.63138238 26.43385803 51.58838011 26.4375 57.8125 C26.44974609 58.90240234 26.46199219 59.99230469 26.47460938 61.11523438 C26.48625466 67.5706022 25.9138434 73.25894315 24.25 79.5 C2.41363169 83.33334365 -18.84021574 81.09704425 -37.75 68.5 C-41.28997435 65.68959946 -44.54968809 62.68908274 -47.75 59.5 C-48.36101562 58.9121875 -48.97203125 58.324375 -49.6015625 57.71875 C-54.36627165 52.74279759 -56.50359866 47.00989126 -56.87890625 40.140625 C-56.50169502 33.51085179 -53.87731423 28.36322991 -48.9921875 23.890625 C-43.75030126 20.11307135 -39.05660109 19.91844867 -32.75 20.5 C-32.74742187 19.88253906 -32.74484375 19.26507813 -32.7421875 18.62890625 C-32.41960819 11.56441932 -30.60871195 6.70879382 -25.75 1.5 C-18.45234169 -4.41142191 -8.1179143 -4.17492735 0 0 Z " fill="#FFA4B8" transform="translate(485.75,109.5)"/>
<path d="M0 0 C-2.81562285 1.40781143 -4.08029766 0.48546496 -7.0625 -0.4375 C-20.4874144 -3.91445625 -34.81458088 -3.29836025 -47 3.73046875 C-53.63940789 8.249957 -59.36940547 13.73881094 -63 21 C-63.97925949 28.25147853 -63.15113011 33.18671285 -58.734375 39.0546875 C-56.35989624 41.71795421 -53.83603993 43.83920767 -51 46 C-51 46.33 -51 46.66 -51 47 C-52.10859375 47.18175781 -53.2171875 47.36351562 -54.359375 47.55078125 C-55.82301777 47.80410404 -57.28655404 48.0580427 -58.75 48.3125 C-59.84441406 48.48942383 -59.84441406 48.48942383 -60.9609375 48.66992188 C-65.10207801 49.40403315 -67.74668872 50.18098998 -71 53 C-71.66 53 -72.32 53 -73 53 C-77.1285337 63.18371647 -77.20639652 73.25624992 -72.96484375 83.5 C-70.27151638 89.1811021 -66.96000672 94.12823915 -63 99 C-77.07112159 97.64700754 -91.80351155 89.21262705 -101.01953125 78.6953125 C-107.64455623 69.96422695 -110.31427163 60.96616382 -110.5 50.125 C-110.51861084 49.41142334 -110.53722168 48.69784668 -110.55639648 47.96264648 C-110.49447003 42.84078799 -109.22875883 39.92515779 -106 36 C-100.56832873 31.01592748 -94.11775167 29.87663486 -87 29 C-87.54269531 28.50371094 -88.08539063 28.00742187 -88.64453125 27.49609375 C-94.28749864 22.13781661 -97.95076368 17.58135026 -98.5 9.5625 C-98.31401354 4.35487925 -96.0927066 1.04894736 -93 -3 C-92.29875 -4.010625 -91.5975 -5.02125 -90.875 -6.0625 C-66.5150336 -33.82680953 -25.01610844 -16.61847487 0 0 Z " fill="#FFBECA" transform="translate(281,279)"/>
<path d="M0 0 C4.62990976 4.18896598 8.33128809 8.51329179 10.625 14.375 C10.3666885 17.10341523 9.87845315 18.13234418 7.8828125 20.04296875 C6.82707031 20.79513672 6.82707031 20.79513672 5.75 21.5625 C4.70199219 22.32626953 4.70199219 22.32626953 3.6328125 23.10546875 C1.625 24.375 1.625 24.375 -1.375 25.375 C-2.46413407 27.2508424 -2.46413407 27.2508424 -3.375 29.375 C-4.138125 30.4475 -4.90125 31.52 -5.6875 32.625 C-13.62343961 45.46263559 -13.97441073 58.88609048 -13.4375 73.5 C-13.34878439 76.11263834 -13.26845134 78.72428793 -13.21324158 81.33786011 C-13.17886107 82.94561077 -13.12566679 84.55311427 -13.05006409 86.15945435 C-12.9319412 91.39513805 -13.9496581 94.19343431 -17.375 98.375 C-21.33665846 101.97650769 -25.58944887 101.87233987 -30.71484375 101.734375 C-34.42135474 101.23364224 -36.58671106 99.81475282 -39.375 97.375 C-39.89368652 96.93438232 -40.41237305 96.49376465 -40.94677734 96.03979492 C-42.75422829 93.93295595 -43.1339467 92.2547501 -43.7265625 89.55078125 C-43.93796875 88.60396484 -44.149375 87.65714844 -44.3671875 86.68164062 C-44.57601563 85.69357422 -44.78484375 84.70550781 -45 83.6875 C-45.2165625 82.71876953 -45.433125 81.75003906 -45.65625 80.75195312 C-50.32950895 59.41939144 -51.37857963 35.49574632 -39.375 16.375 C-31.37760567 4.6181468 -14.36981711 -6.91880083 0 0 Z " fill="#FFBECA" transform="translate(330.375,185.625)"/>
<path d="M0 0 C1.21236328 0.01353516 1.21236328 0.01353516 2.44921875 0.02734375 C3.37154297 0.04474609 3.37154297 0.04474609 4.3125 0.0625 C12.47086679 22.09009033 12.15138641 47.04324162 2.80859375 68.51953125 C-1.42186888 77.11297702 -7.22344033 84.08938363 -13.6875 91.0625 C-14.31785156 91.77148438 -14.94820313 92.48046875 -15.59765625 93.2109375 C-18.90741952 96.54417427 -21.21115133 97.40451821 -25.9375 97.5 C-28.8339878 97.35157749 -30.9119996 96.9876668 -33.6875 96.0625 C-34.58609102 93.7106704 -35.2391694 91.56036636 -35.8125 89.125 C-36.06797607 88.05668945 -36.06797607 88.05668945 -36.32861328 86.96679688 C-41.4726658 63.85627352 -38.30867366 38.9646605 -25.60546875 18.74609375 C-19.38451108 10.041821 -11.58816123 -0.16794437 0 0 Z " fill="#FFBECA" transform="translate(337.6875,14.9375)"/>
<path d="M0 0 C4.40421408 2.9047065 7.47596651 6.0552528 8.82421875 11.203125 C9.44350577 18.01528223 7.57831798 21.96445232 3.40625 27.2890625 C2.48352565 28.38579773 1.56032763 29.48213457 0.63671875 30.578125 C-11.30414214 45.27395845 -17.51746353 61.01349218 -15.94140625 80.03125 C-15.72101439 82.09256214 -15.45432529 84.14886272 -15.17578125 86.203125 C-21.57378435 88.9949809 -27.43599314 90.86821785 -34.27734375 88.46484375 C-42.54230313 84.07707574 -46.86225624 75.19250646 -49.58911133 66.58544922 C-50.55129827 62.6782415 -50.66560786 58.89958514 -50.61328125 54.890625 C-50.60498291 54.06030762 -50.59668457 53.22999023 -50.58813477 52.37451172 C-50.39791019 45.41134466 -49.1406434 39.54512302 -46.17578125 33.203125 C-45.42941406 31.60404297 -45.42941406 31.60404297 -44.66796875 29.97265625 C-39.08668393 18.90094473 -29.02808646 2.83223097 -17.1171875 -2.05078125 C-10.54399489 -3.71808509 -5.84959442 -3.26382086 0 0 Z " fill="#FFBECA" transform="translate(261.17578125,397.796875)"/>
<path d="M0 0 C14.69854683 -1.21364148 30.73401982 2.77216637 44 9 C45.89244978 10.89244978 45.21843905 14.04025393 45.25 16.5625 C45.20853878 41.20527378 35.28149611 65.69557669 17.8984375 83.1640625 C16.93265071 84.10974182 15.96653162 85.05508195 15 86 C14.24976563 86.77085937 13.49953125 87.54171875 12.7265625 88.3359375 C4.70880479 96.11524889 -6.25141287 102.15577847 -17.5625 102.125 C-18.51253906 102.12757813 -19.46257813 102.13015625 -20.44140625 102.1328125 C-23 102 -23 102 -26 101 C-26 100.34 -26 99.68 -26 99 C-24.39585164 97.77664947 -22.73894748 96.62223096 -21.0625 95.5 C-7.20769056 85.58848247 3.0883805 70.3161563 6.62060547 53.50585938 C8.88190468 38.57022543 7.7969049 23.28755546 3 9 C2.69191406 8.02160156 2.38382813 7.04320312 2.06640625 6.03515625 C1.41460634 4.01114599 0.71517652 2.00249424 0 0 Z " fill="#FFA4B8" transform="translate(66,315)"/>
<path d="M0 0 C7.18932126 4.46533968 11.45823943 10.99576489 14 19 C15.36541459 28.44984775 14.38011875 36.07140395 9 44 C8.62746094 44.58265625 8.25492188 45.1653125 7.87109375 45.765625 C3.62778285 51.62050694 -4.06289037 55.44268968 -11 57 C-20.26411416 58.050903 -27.6946022 55.48105177 -35.3125 50.25 C-41.36067105 45.42368169 -45.47278901 38.34442132 -46.40625 30.65234375 C-46.66223516 20.5089318 -44.89772359 12.77680219 -38.171875 4.84375 C-27.29275322 -5.59313106 -13.1909232 -6.71574358 0 0 Z " fill="#FFD8DF" transform="translate(144,96)"/>
<path d="M0 0 C7.16759753 17.98858214 9.01822562 37.27247227 1.55859375 55.52734375 C-2.27755227 63.72476946 -6.96459565 70.29399517 -13 77 C-24.83745018 73.40030755 -36.4909127 64.90130152 -42.5625 53.9375 C-45.46149346 47.06274409 -45.63915295 40.95997959 -42.94140625 34.00390625 C-40.70985026 29.25374765 -37.71821096 26.22989549 -33.08203125 23.71484375 C-29.14612496 22.36349131 -25.10096409 22.70294828 -21 23 C-20.99742187 22.38253906 -20.99484375 21.76507813 -20.9921875 21.12890625 C-20.67066826 14.08763496 -18.87832984 9.17334762 -14 4 C-9.56760721 0.73077987 -5.55279751 -0.55527975 0 0 Z " fill="#FFBECA" transform="translate(474,107)"/>
<path d="M0 0 C7.1987518 6.82958504 7.1987518 6.82958504 7.5703125 12.25 C7.56773438 12.930625 7.56515625 13.61125 7.5625 14.3125 C7.56636719 15.3334375 7.56636719 15.3334375 7.5703125 16.375 C7.4375 18.3125 7.4375 18.3125 6.4375 21.3125 C6.4126834 23.11329855 6.44646009 24.91520282 6.515625 26.71484375 C6.54140625 27.76994141 6.5671875 28.82503906 6.59375 29.91210938 C6.65615425 32.13396076 6.73423566 34.35542816 6.828125 36.57617188 C6.98575961 44.65001964 6.98575961 44.65001964 4.1875 48.03125 C-0.69569315 50.30637408 -4.82001525 50.30768259 -9.8984375 48.46484375 C-18.86111165 43.95291734 -24.34688366 36.6943257 -27.5625 27.3125 C-29.11965065 21.47318505 -28.64992187 15.31546851 -28.5625 9.3125 C-27.9025 9.3125 -27.2425 9.3125 -26.5625 9.3125 C-26.52125 8.590625 -26.48 7.86875 -26.4375 7.125 C-25.19971895 3.14641804 -22.88548855 1.70505176 -19.5625 -0.6875 C-13.30501171 -2.77332943 -5.95793597 -2.8221802 0 0 Z " fill="#FFBECA" transform="translate(96.5625,195.6875)"/>
<path d="M0 0 C0.50789063 0.38671875 1.01578125 0.7734375 1.5390625 1.171875 C5.61331983 4.25427193 9.71647931 7.21571155 14 10 C12.73100732 13.47672866 11.2732353 16.26234878 9.05859375 19.22265625 C8.47883789 20.00334473 7.89908203 20.7840332 7.30175781 21.58837891 C6.68655273 22.40483887 6.07134766 23.22129883 5.4375 24.0625 C4.81069336 24.90216309 4.18388672 25.74182617 3.53808594 26.60693359 C2.2806984 28.29023129 1.02112949 29.97190198 -0.24072266 31.65185547 C-1.79001157 33.71972402 -3.32656653 35.79594977 -4.85546875 37.87890625 C-5.65355393 38.96100529 -6.45172322 40.0430423 -7.25 41.125 C-7.93578125 42.05570312 -8.6215625 42.98640625 -9.328125 43.9453125 C-11.65125518 46.80037435 -12.6042464 46.95519771 -16.3125 47.375 C-20 47 -20 47 -22.9375 44.9375 C-25.53902673 41.23229526 -25.43143946 39.46136846 -25 35 C-23.5234375 32.140625 -23.5234375 32.140625 -21.375 29.25 C-20.98691162 28.71777832 -20.59882324 28.18555664 -20.19897461 27.63720703 C-19.31932755 26.43589421 -18.43166374 25.24042523 -17.53759766 24.04980469 C-15.79361134 21.72485881 -14.07384619 19.3829955 -12.35546875 17.0390625 C-9.37390735 12.97517973 -6.37725776 8.92286033 -3.36938477 4.87841797 C-2.20516989 3.28143647 -1.09625182 1.64437773 0 0 Z " fill="#FF8CA5" transform="translate(307,388)"/>
<path d="M0 0 C4.03521401 3.68347622 7.03626027 8.00916678 10.1875 12.4375 C10.75686279 13.23647705 11.32622559 14.0354541 11.9128418 14.85864258 C13.06397153 16.47579444 14.21380682 18.09386856 15.36230469 19.71289062 C16.83538326 21.77010591 18.33521595 23.80272697 19.8515625 25.828125 C20.67211201 26.947743 21.49244125 28.06752249 22.3125 29.1875 C23.03050781 30.15042969 23.74851562 31.11335938 24.48828125 32.10546875 C26.35276513 35.67544951 26.43042434 38.02325336 26 42 C23.40783917 45.69186542 21.95850936 46.82883761 17.5 47.625 C7.62941405 45.86239537 -0.71175872 29.48741139 -6.5 21.5 C-7.13168091 20.63773804 -7.13168091 20.63773804 -7.77612305 19.75805664 C-10.02265269 16.62303257 -11.7463406 13.65196435 -13 10 C-12.22914063 9.44570313 -11.45828125 8.89140625 -10.6640625 8.3203125 C-9.66117187 7.59585937 -8.65828125 6.87140625 -7.625 6.125 C-6.62726563 5.40570313 -5.62953125 4.68640625 -4.6015625 3.9453125 C-2.00530106 2.1005342 -2.00530106 2.1005342 0 0 Z " fill="#FF8CA5" transform="translate(375,388)"/>
<path d="M0 0 C3.0625 2.5625 3.0625 2.5625 5 6 C5.125 9.625 5.125 9.625 4 13 C0.07496598 16.8560675 -4.11395483 18.38009197 -9.22265625 20.05078125 C-10.39640053 20.44537788 -10.39640053 20.44537788 -11.59385681 20.84794617 C-13.24029777 21.39834079 -14.88850229 21.94348487 -16.53833008 22.48364258 C-19.0629637 23.31265227 -21.57931957 24.16389715 -24.09570312 25.01757812 C-25.70007347 25.55082703 -27.3048774 26.08277356 -28.91015625 26.61328125 C-29.66128189 26.86837967 -30.41240753 27.12347809 -31.18629456 27.38630676 C-37.4081392 29.39528053 -37.4081392 29.39528053 -41 28 C-42.30078125 25.41796875 -42.30078125 25.41796875 -43.3125 22.1875 C-43.83263672 20.60001953 -43.83263672 20.60001953 -44.36328125 18.98046875 C-45.00098498 15.99538935 -45.0846454 14.78029046 -44 12 C-41.40617268 10.77398801 -39.02325671 9.85140631 -36.30859375 8.984375 C-35.52992447 8.72368225 -34.75125519 8.4629895 -33.94898987 8.19439697 C-32.29633442 7.64540071 -30.64094433 7.10457989 -28.9831543 6.57128906 C-26.46492416 5.75884769 -23.95809854 4.91690344 -21.45117188 4.0703125 C-19.84174045 3.53985914 -18.23173031 3.01115784 -16.62109375 2.484375 C-15.87806503 2.23443787 -15.13503632 1.98450073 -14.36949158 1.72698975 C-9.40395379 0.15238676 -5.21528963 -0.45038127 0 0 Z " fill="#FF8CA5" transform="translate(428,321)"/>
<path d="M0 0 C2.19846961 0.62120874 4.35962254 1.31155826 6.52493286 2.03991699 C7.70298241 2.42521576 7.70298241 2.42521576 8.90483093 2.81829834 C10.54965102 3.36041547 12.1924624 3.90866244 13.83328247 4.46276855 C16.3522738 5.30921634 18.87998985 6.12457809 21.40969849 6.93835449 C23.01122335 7.47036566 24.61215826 8.00415682 26.21243286 8.53991699 C26.9696312 8.7817572 27.72682953 9.02359741 28.50697327 9.27276611 C30.61257935 9.99987793 30.61257935 9.99987793 33.90383911 11.55554199 C35.38364698 15.3487593 34.46294047 17.93835904 33.21633911 21.74304199 C32.88247192 22.80909668 32.54860474 23.87515137 32.20462036 24.97351074 C30.90383911 27.55554199 30.90383911 27.55554199 29.06497192 28.27944946 C26.66535029 28.5860098 25.3080724 28.31625255 23.02493286 27.55505371 C22.27735718 27.31084686 21.52978149 27.06664001 20.759552 26.81503296 C19.56253662 26.40428024 19.56253662 26.40428024 18.34133911 25.98522949 C17.51303589 25.70712433 16.68473267 25.42901917 15.83132935 25.14248657 C14.08119426 24.55089887 12.33293374 23.95374052 10.5864563 23.35144043 C7.91986698 22.4360441 5.24479322 21.5496607 2.56790161 20.66491699 C0.86678591 20.08593269 -0.83375569 19.50525828 -2.53366089 18.92272949 C-3.33167114 18.66103973 -4.1296814 18.39934998 -4.95187378 18.12973022 C-9.62457649 16.48510656 -12.49539982 15.01584723 -15.09616089 10.55554199 C-15.09616089 6.66971923 -14.63183885 4.39119961 -12.53366089 1.11804199 C-8.65685727 -1.36708853 -4.3814334 -0.92901417 0 0 Z " fill="#FF8CA5" transform="translate(265.0961608886719,321.4444580078125)"/>
<path d="M0 0 C4.544656 0.81154571 5.74222571 1.93525003 8.5 5.625 C9.18041767 9.00542542 9.0829602 12.30192477 8.98828125 15.73828125 C8.98120651 16.70783249 8.97413177 17.67738373 8.96684265 18.67631531 C8.93891874 21.76417137 8.87618303 24.85019475 8.8125 27.9375 C8.78741458 30.03447897 8.76460184 32.13148644 8.74414062 34.22851562 C8.68909838 39.36138009 8.60283859 44.49287964 8.5 49.625 C2.89 49.625 -2.72 49.625 -8.5 49.625 C-8.62372902 43.45035087 -8.71440144 37.27642544 -8.7746582 31.10083008 C-8.79978051 29.0007673 -8.83388458 26.90079177 -8.87719727 24.80102539 C-8.93794871 21.7798916 -8.96623263 18.75991504 -8.98828125 15.73828125 C-9.01408768 14.80164139 -9.0398941 13.86500153 -9.06648254 12.89997864 C-9.06844001 8.33597789 -8.99317933 6.28484676 -6.18823242 2.53198242 C-3.5 0.625 -3.5 0.625 0 0 Z " fill="#FF8CA5" transform="translate(341.5,260.375)"/>
</svg>
